<svg width="81" height="15" viewBox="0 0 81 15" fill="none" xmlns="http://www.w3.org/2000/svg">
<path d="M10.6494 8.82833V8.79058C10.6494 5.84697 13.0571 3.38263 16.3806 3.38263C19.7042 3.38263 22.0765 5.80922 22.0765 8.75284V8.79058C22.0765 11.7341 19.6688 14.1985 16.3429 14.1985C13.0169 14.1985 10.6494 11.7719 10.6494 8.82833ZM18.5405 8.82833V8.79058C18.5405 7.53006 17.6247 6.45836 16.3429 6.45836C15.0234 6.45836 14.183 7.50882 14.183 8.75284V8.79058C14.183 10.0511 15.1013 11.1204 16.3806 11.1204C17.7026 11.1204 18.5429 10.0699 18.5429 8.82833H18.5405Z" fill="#0C87C9"/>
<path d="M22.9575 8.8283V8.79055C22.9575 5.42679 25.0607 3.38262 27.5061 3.38262C29.0735 3.38262 29.9893 4.09076 30.6786 4.87206V0H34.3091V13.9506H30.6786V12.5745C29.9705 13.4337 29.0735 14.1796 27.5251 14.1796C25.0795 14.1796 22.9575 12.1354 22.9575 8.8283ZM30.7471 8.79055V8.7528C30.7471 7.39553 29.8029 6.42058 28.6439 6.42058C27.4849 6.42058 26.5194 7.37661 26.5194 8.7528V8.79055C26.5194 10.1667 27.4754 11.1511 28.6439 11.1511C29.8123 11.1511 30.7353 10.1667 30.7353 8.79055H30.7471Z" fill="#0C87C9"/>
<path d="M35.5696 8.82833V8.79058C35.5696 5.77147 37.7294 3.38263 40.7862 3.38263C44.36 3.38263 46.003 6.00046 46.003 9.04787C46.003 9.28391 46.003 9.54592 45.984 9.79375H39.0678C39.3535 10.9221 40.1749 11.4933 41.3032 11.4933C42.1624 11.4933 42.8494 11.1699 43.5953 10.4429L45.6016 12.0953C44.608 13.3581 43.1751 14.1985 41.1168 14.1985C37.864 14.1985 35.5696 12.0386 35.5696 8.82833ZM42.6015 7.93137C42.4693 6.78409 41.7989 6.05713 40.8051 6.05713C39.8491 6.05713 39.2 6.80301 39.0088 7.93137H42.6015Z" fill="#0C87C9"/>
<path d="M50.9153 12.6996V13.9506H47.2848V0H50.9153V4.98781C51.6234 4.12851 52.5015 3.38262 54.0476 3.38262C56.5143 3.38262 58.634 5.42679 58.634 8.73388V8.77163C58.634 12.1354 56.5096 14.1796 54.0689 14.1796C53.4643 14.1957 52.8642 14.0703 52.3166 13.8133C51.7691 13.5564 51.2892 13.1749 50.9153 12.6996ZM55.0626 8.80233V8.76458C55.0626 7.40731 54.1185 6.43244 52.9382 6.43244C51.758 6.43244 50.835 7.40731 50.835 8.76458V8.80233C50.835 10.1785 51.7792 11.1628 52.9382 11.1628C54.0971 11.1628 55.0626 10.1857 55.0626 8.79055V8.80233Z" fill="#0C87C9"/>
<path d="M59.5114 8.82833V8.79058C59.5114 5.77147 61.6712 3.38263 64.7281 3.38263C68.3019 3.38263 69.9448 6.00046 69.9448 9.04787C69.9448 9.28391 69.9448 9.54592 69.9259 9.79375H63.0097C63.2977 10.9221 64.1191 11.4933 65.2451 11.4933C66.1067 11.4933 66.7936 11.1699 67.5394 10.4429L69.5459 12.0953C68.5521 13.3581 67.1193 14.1985 65.061 14.1985C61.8058 14.1985 59.5114 12.0386 59.5114 8.82833ZM66.5433 7.93137C66.4088 6.78409 65.7408 6.05713 64.747 6.05713C63.791 6.05713 63.1418 6.80301 62.9507 7.93137H66.5433Z" fill="#0C87C9"/>
<path d="M71.314 0H74.9445V13.9506H71.314V0Z" fill="#0C87C9"/>
<path d="M76.7699 0H80.4003V13.9506H76.7699V0Z" fill="#0C87C9"/>
<path d="M10.3684 3.89603H0.472402C0.462835 3.89638 0.453294 3.89473 0.444376 3.89127C0.435467 3.88781 0.427364 3.88262 0.420594 3.87595C0.413816 3.8692 0.408511 3.86124 0.405003 3.85241C0.401496 3.84367 0.399856 3.83424 0.400189 3.8248V3.68702C0.400189 2.73089 0.784844 1.81392 1.46961 1.13763C2.15437 0.461355 3.08319 0.0811067 4.05191 0.0804749H6.79614C7.76486 0.0811067 8.69368 0.461355 9.37845 1.13763C10.0631 1.81392 10.4478 2.73089 10.4478 3.68702V3.8248C10.4455 3.8441 10.4362 3.86193 10.4216 3.87509C10.407 3.88816 10.3881 3.8956 10.3684 3.89603Z" fill="#0C87C9"/>
<path d="M6.58239 10.2539H0.40015C0.398869 11.297 0.803898 12.2981 1.52634 13.0372C2.24879 13.7764 3.22961 14.1934 4.25353 14.1967H10.4478C10.4482 13.6792 10.3484 13.1668 10.1544 12.6886C9.9603 12.2104 9.67561 11.7758 9.31669 11.4097C8.95778 11.0436 8.53157 10.7531 8.06237 10.5547C7.59326 10.3564 7.09037 10.2543 6.58239 10.2539Z" fill="#37C8FC"/>
<path d="M4.85166 10.3826H0.400147V3.73323C0.39983 3.25383 0.493783 2.7791 0.676634 2.33611C0.859486 1.89311 1.12766 1.49052 1.46585 1.15134C1.80404 0.812147 2.20561 0.543004 2.64765 0.359264C3.08968 0.175524 3.56352 0.0807923 4.0421 0.0804749H4.85166V10.3826Z" fill="#0C87C9"/>
</svg>
