<svg width="204" height="204" viewBox="0 0 204 204" fill="none" xmlns="http://www.w3.org/2000/svg">
<g id="Group 1000003979">
<g id="Group 1000003454">
<g id="Group 1000003453">
<g id="Group 1000003451">
<g id="Group 1000003439">
<path id="Vector" d="M200.851 3.1504H3.14276V200.848H200.851V3.1504Z" fill="white"/>
<g id="Group 1000003448">
<g id="Group">
<g id="Group_2">
<g id="Group_3">
<path id="Vector_2" d="M78.9846 18.0957H72.1671V24.9129H78.9846V18.0957Z" fill="#14455F"/>
</g>
</g>
<g id="Group_4">
<g id="Group_5">
<path id="Vector_3" d="M92.6181 18.0957H85.8005V24.9129H92.6181V18.0957Z" fill="#14455F"/>
</g>
</g>
<g id="Group_6">
<g id="Group_7">
<path id="Vector_4" d="M119.885 18.0957H113.067V24.9129H119.885V18.0957Z" fill="#14455F"/>
</g>
</g>
<g id="Group_8">
<g id="Group_9">
<path id="Vector_5" d="M92.6181 24.9063H85.8005V31.7234H92.6181V24.9063Z" fill="#14455F"/>
</g>
</g>
<g id="Group_10">
<g id="Group_11">
<path id="Vector_6" d="M78.9846 31.7149H72.1671V38.532H78.9846V31.7149Z" fill="#14455F"/>
</g>
</g>
<g id="Group_12">
<g id="Group_13">
<path id="Vector_7" d="M99.4313 31.7149H92.6138V38.532H99.4313V31.7149Z" fill="#14455F"/>
</g>
</g>
<g id="Group_14">
<g id="Group_15">
<path id="Vector_8" d="M106.254 31.7149H99.4368V38.532H106.254V31.7149Z" fill="#14455F"/>
</g>
</g>
<g id="Group_16">
<g id="Group_17">
<path id="Vector_9" d="M113.072 31.7149H106.254V38.532H113.072V31.7149Z" fill="#14455F"/>
</g>
</g>
<g id="Group_18">
<g id="Group_19">
<path id="Vector_10" d="M99.4381 38.5391H92.6206V45.3562H99.4381V38.5391Z" fill="#14455F"/>
</g>
</g>
<g id="Group_20">
<g id="Group_21">
<path id="Vector_11" d="M113.072 38.5391H106.254V45.3562H113.072V38.5391Z" fill="#14455F"/>
</g>
</g>
<g id="Group_22">
<g id="Group_23">
<path id="Vector_12" d="M119.888 38.5391H113.07V45.3562H119.888V38.5391Z" fill="#14455F"/>
</g>
</g>
<g id="Group_24">
<g id="Group_25">
<path id="Vector_13" d="M126.705 38.5391H119.887V45.3562H126.705V38.5391Z" fill="#14455F"/>
</g>
</g>
<g id="Group_26">
<g id="Group_27">
<path id="Vector_14" d="M85.7989 45.3574H78.9814V52.1746H85.7989V45.3574Z" fill="#14455F"/>
</g>
</g>
<g id="Group_28">
<g id="Group_29">
<path id="Vector_15" d="M92.6181 45.3574H85.8005V52.1746H92.6181V45.3574Z" fill="#14455F"/>
</g>
</g>
<g id="Group_30">
<g id="Group_31">
<path id="Vector_16" d="M106.251 45.3574H99.434V52.1746H106.251V45.3574Z" fill="#14455F"/>
</g>
</g>
<g id="Group_32">
<g id="Group_33">
<path id="Vector_17" d="M119.888 45.3574H113.07V52.1746H119.888V45.3574Z" fill="#14455F"/>
</g>
</g>
<g id="Group_34">
<g id="Group_35">
<path id="Vector_18" d="M133.524 45.3574H126.707V52.1746H133.524V45.3574Z" fill="#14455F"/>
</g>
</g>
<g id="Group_36">
<g id="Group_37">
<path id="Vector_19" d="M78.9846 52.1777H72.1671V58.9949H78.9846V52.1777Z" fill="#14455F"/>
</g>
</g>
<g id="Group_38">
<g id="Group_39">
<path id="Vector_20" d="M85.7989 52.1777H78.9814V58.9949H85.7989V52.1777Z" fill="#14455F"/>
</g>
</g>
<g id="Group_40">
<g id="Group_41">
<path id="Vector_21" d="M92.6181 52.1777H85.8005V58.9949H92.6181V52.1777Z" fill="#14455F"/>
</g>
</g>
<g id="Group_42">
<g id="Group_43">
<path id="Vector_22" d="M113.072 52.1777H106.254V58.9949H113.072V52.1777Z" fill="#14455F"/>
</g>
</g>
<g id="Group_44">
<g id="Group_45">
<path id="Vector_23" d="M119.888 52.1777H113.07V58.9949H119.888V52.1777Z" fill="#14455F"/>
</g>
</g>
<g id="Group_46">
<g id="Group_47">
<path id="Vector_24" d="M78.9846 58.9941H72.1671V65.8113H78.9846V58.9941Z" fill="#14455F"/>
</g>
</g>
<g id="Group_48">
<g id="Group_49">
<path id="Vector_25" d="M92.6181 58.9941H85.8005V65.8113H92.6181V58.9941Z" fill="#14455F"/>
</g>
</g>
<g id="Group_50">
<g id="Group_51">
<path id="Vector_26" d="M106.254 58.9941H99.4368V65.8113H106.254V58.9941Z" fill="#14455F"/>
</g>
</g>
<g id="Group_52">
<g id="Group_53">
<path id="Vector_27" d="M119.886 58.9941H113.068V65.8113H119.886V58.9941Z" fill="#14455F"/>
</g>
</g>
<g id="Group_54">
<g id="Group_55">
<path id="Vector_28" d="M133.524 58.9941H126.707V65.8113H133.524V58.9941Z" fill="#14455F"/>
</g>
</g>
<g id="Group_56">
<g id="Group_57">
<path id="Vector_29" d="M85.7989 65.8164H78.9814V72.6336H85.7989V65.8164Z" fill="#14455F"/>
</g>
</g>
<g id="Group_58">
<g id="Group_59">
<path id="Vector_30" d="M92.6181 65.8047H85.8005V72.6218H92.6181V65.8047Z" fill="#14455F"/>
</g>
</g>
<g id="Group_60">
<g id="Group_61">
<path id="Vector_31" d="M99.4362 65.8047H92.6187V72.6218H99.4362V65.8047Z" fill="#14455F"/>
</g>
</g>
<g id="Group_62">
<g id="Group_63">
<path id="Vector_32" d="M119.888 65.8164H113.07V72.6336H119.888V65.8164Z" fill="#14455F"/>
</g>
</g>
<g id="Group_64">
<g id="Group_65">
<path id="Vector_33" d="M133.524 65.8047H126.707V72.6218H133.524V65.8047Z" fill="#14455F"/>
</g>
</g>
<g id="Group_66">
<g id="Group_67">
<path id="Vector_34" d="M24.4432 72.6289H17.6257V79.4461H24.4432V72.6289Z" fill="#14455F"/>
</g>
</g>
<g id="Group_68">
<g id="Group_69">
<path id="Vector_35" d="M38.0767 72.6289H31.2592V79.4461H38.0767V72.6289Z" fill="#14455F"/>
</g>
</g>
<g id="Group_70">
<g id="Group_71">
<path id="Vector_36" d="M65.3474 72.6289H58.5298V79.4461H65.3474V72.6289Z" fill="#14455F"/>
</g>
</g>
<g id="Group_72">
<g id="Group_73">
<path id="Vector_37" d="M72.1655 72.6289H65.348V79.4461H72.1655V72.6289Z" fill="#14455F"/>
</g>
</g>
<g id="Group_74">
<g id="Group_75">
<path id="Vector_38" d="M99.4362 72.6289H92.6187V79.4461H99.4362V72.6289Z" fill="#14455F"/>
</g>
</g>
<g id="Group_76">
<g id="Group_77">
<path id="Vector_39" d="M119.889 72.6289H113.071V79.4461H119.889V72.6289Z" fill="#14455F"/>
</g>
</g>
<g id="Group_78">
<g id="Group_79">
<path id="Vector_40" d="M133.524 72.6289H126.707V79.4461H133.524V72.6289Z" fill="#14455F"/>
</g>
</g>
<g id="Group_80">
<g id="Group_81">
<path id="Vector_41" d="M153.973 72.6289H147.155V79.4461H153.973V72.6289Z" fill="#14455F"/>
</g>
</g>
<g id="Group_82">
<g id="Group_83">
<path id="Vector_42" d="M174.427 72.6289H167.61V79.4461H174.427V72.6289Z" fill="#14455F"/>
</g>
</g>
<g id="Group_84">
<g id="Group_85">
<path id="Vector_43" d="M188.062 72.6289H181.244V79.4461H188.062V72.6289Z" fill="#14455F"/>
</g>
</g>
<g id="Group_86">
<g id="Group_87">
<path id="Vector_44" d="M24.4403 79.4375H17.6228V86.2546H24.4403V79.4375Z" fill="#14455F"/>
</g>
</g>
<g id="Group_88">
<g id="Group_89">
<path id="Vector_45" d="M31.2614 79.4473H24.4439V86.2644H31.2614V79.4473Z" fill="#14455F"/>
</g>
</g>
<g id="Group_90">
<g id="Group_91">
<path id="Vector_46" d="M51.713 79.4473H44.8954V86.2644H51.713V79.4473Z" fill="#14455F"/>
</g>
</g>
<g id="Group_92">
<g id="Group_93">
<path id="Vector_47" d="M58.5292 79.4375H51.7117V86.2546H58.5292V79.4375Z" fill="#14455F"/>
</g>
</g>
<g id="Group_94">
<g id="Group_95">
<path id="Vector_48" d="M72.1655 79.4375H65.348V86.2546H72.1655V79.4375Z" fill="#14455F"/>
</g>
</g>
<g id="Group_96">
<g id="Group_97">
<path id="Vector_49" d="M78.9827 79.4473H72.1652V86.2644H78.9827V79.4473Z" fill="#14455F"/>
</g>
</g>
<g id="Group_98">
<g id="Group_99">
<path id="Vector_50" d="M113.07 79.4375H106.252V86.2546H113.07V79.4375Z" fill="#14455F"/>
</g>
</g>
<g id="Group_100">
<g id="Group_101">
<path id="Vector_51" d="M126.705 79.4375H119.887V86.2546H126.705V79.4375Z" fill="#14455F"/>
</g>
</g>
<g id="Group_102">
<g id="Group_103">
<path id="Vector_52" d="M133.524 79.4473H126.707V86.2644H133.524V79.4473Z" fill="#14455F"/>
</g>
</g>
<g id="Group_104">
<g id="Group_105">
<path id="Vector_53" d="M147.161 79.4375H140.344V86.2546H147.161V79.4375Z" fill="#14455F"/>
</g>
</g>
<g id="Group_106">
<g id="Group_107">
<path id="Vector_54" d="M153.973 79.4473H147.155V86.2644H153.973V79.4473Z" fill="#14455F"/>
</g>
</g>
<g id="Group_108">
<g id="Group_109">
<path id="Vector_55" d="M167.611 79.4375H160.793V86.2546H167.611V79.4375Z" fill="#14455F"/>
</g>
</g>
<g id="Group_110">
<g id="Group_111">
<path id="Vector_56" d="M181.244 79.4375H174.427V86.2546H181.244V79.4375Z" fill="#14455F"/>
</g>
</g>
<g id="Group_112">
<g id="Group_113">
<path id="Vector_57" d="M188.063 79.4473H181.246V86.2644H188.063V79.4473Z" fill="#14455F"/>
</g>
</g>
<g id="Group_114">
<g id="Group_115">
<path id="Vector_58" d="M51.713 86.2637H44.8954V93.0808H51.713V86.2637Z" fill="#14455F"/>
</g>
</g>
<g id="Group_116">
<g id="Group_117">
<path id="Vector_59" d="M58.5292 86.2637H51.7117V93.0808H58.5292V86.2637Z" fill="#14455F"/>
</g>
</g>
<g id="Group_118">
<g id="Group_119">
<path id="Vector_60" d="M65.3444 86.2637H58.5269V93.0808H65.3444V86.2637Z" fill="#14455F"/>
</g>
</g>
<g id="Group_120">
<g id="Group_121">
<path id="Vector_61" d="M72.1655 86.2637H65.348V93.0808H72.1655V86.2637Z" fill="#14455F"/>
</g>
</g>
<g id="Group_122">
<g id="Group_123">
<path id="Vector_62" d="M85.7989 86.2637H78.9814V93.0808H85.7989V86.2637Z" fill="#14455F"/>
</g>
</g>
<g id="Group_124">
<g id="Group_125">
<path id="Vector_63" d="M92.6181 86.2637H85.8005V93.0808H92.6181V86.2637Z" fill="#14455F"/>
</g>
</g>
<g id="Group_126">
<g id="Group_127">
<path id="Vector_64" d="M106.251 86.2637H99.434V93.0808H106.251V86.2637Z" fill="#14455F"/>
</g>
</g>
<g id="Group_128">
<g id="Group_129">
<path id="Vector_65" d="M126.705 86.2637H119.887V93.0808H126.705V86.2637Z" fill="#14455F"/>
</g>
</g>
<g id="Group_130">
<g id="Group_131">
<path id="Vector_66" d="M133.524 86.2637H126.707V93.0808H133.524V86.2637Z" fill="#14455F"/>
</g>
</g>
<g id="Group_132">
<g id="Group_133">
<path id="Vector_67" d="M167.611 86.2637H160.793V93.0808H167.611V86.2637Z" fill="#14455F"/>
</g>
</g>
<g id="Group_134">
<g id="Group_135">
<path id="Vector_68" d="M174.428 86.2637H167.611V93.0808H174.428V86.2637Z" fill="#14455F"/>
</g>
</g>
<g id="Group_136">
<g id="Group_137">
<path id="Vector_69" d="M188.063 86.2637H181.246V93.0808H188.063V86.2637Z" fill="#14455F"/>
</g>
</g>
<g id="Group_138">
<g id="Group_139">
<path id="Vector_70" d="M24.4403 93.0762H17.6228V99.8933H24.4403V93.0762Z" fill="#14455F"/>
</g>
</g>
<g id="Group_140">
<g id="Group_141">
<path id="Vector_71" d="M31.2614 93.0762H24.4439V99.8933H31.2614V93.0762Z" fill="#14455F"/>
</g>
</g>
<g id="Group_142">
<g id="Group_143">
<path id="Vector_72" d="M38.0786 93.0762H31.261V99.8933H38.0786V93.0762Z" fill="#14455F"/>
</g>
</g>
<g id="Group_144">
<g id="Group_145">
<path id="Vector_73" d="M44.8948 93.0762H38.0773V99.8933H44.8948V93.0762Z" fill="#14455F"/>
</g>
</g>
<g id="Group_146">
<g id="Group_147">
<path id="Vector_74" d="M51.713 93.0762H44.8954V99.8933H51.713V93.0762Z" fill="#14455F"/>
</g>
</g>
<g id="Group_148">
<g id="Group_149">
<path id="Vector_75" d="M72.1655 93.0762H65.348V99.8933H72.1655V93.0762Z" fill="#14455F"/>
</g>
</g>
<g id="Group_150">
<g id="Group_151">
<path id="Vector_76" d="M92.6181 93.0762H85.8005V99.8933H92.6181V93.0762Z" fill="#14455F"/>
</g>
</g>
<g id="Group_152">
<g id="Group_153">
<path id="Vector_77" d="M119.888 93.0762H113.07V99.8933H119.888V93.0762Z" fill="#14455F"/>
</g>
</g>
<g id="Group_154">
<g id="Group_155">
<path id="Vector_78" d="M133.523 93.0762H126.706V99.8933H133.523V93.0762Z" fill="#14455F"/>
</g>
</g>
<g id="Group_156">
<g id="Group_157">
<path id="Vector_79" d="M140.34 93.0762H133.523V99.8933H140.34V93.0762Z" fill="#14455F"/>
</g>
</g>
<g id="Group_158">
<g id="Group_159">
<path id="Vector_80" d="M147.157 93.0762H140.339V99.8933H147.157V93.0762Z" fill="#14455F"/>
</g>
</g>
<g id="Group_160">
<g id="Group_161">
<path id="Vector_81" d="M167.612 93.0762H160.794V99.8933H167.612V93.0762Z" fill="#14455F"/>
</g>
</g>
<g id="Group_162">
<g id="Group_163">
<path id="Vector_82" d="M24.4432 99.8906H17.6257V106.708H24.4432V99.8906Z" fill="#14455F"/>
</g>
</g>
<g id="Group_164">
<g id="Group_165">
<path id="Vector_83" d="M38.0767 99.8906H31.2592V106.708H38.0767V99.8906Z" fill="#14455F"/>
</g>
</g>
<g id="Group_166">
<g id="Group_167">
<path id="Vector_84" d="M51.713 99.8906H44.8954V106.708H51.713V99.8906Z" fill="#14455F"/>
</g>
</g>
<g id="Group_168">
<g id="Group_169">
<path id="Vector_85" d="M65.3444 99.8906H58.5269V106.708H65.3444V99.8906Z" fill="#14455F"/>
</g>
</g>
<g id="Group_170">
<g id="Group_171">
<path id="Vector_86" d="M78.9846 99.8906H72.1671V106.708H78.9846V99.8906Z" fill="#14455F"/>
</g>
</g>
<g id="Group_172">
<g id="Group_173">
<path id="Vector_87" d="M85.8018 99.8906H78.9843V106.708H85.8018V99.8906Z" fill="#14455F"/>
</g>
</g>
<g id="Group_174">
<g id="Group_175">
<path id="Vector_88" d="M113.07 99.8906H106.252V106.708H113.07V99.8906Z" fill="#14455F"/>
</g>
</g>
<g id="Group_176">
<g id="Group_177">
<path id="Vector_89" d="M119.888 99.8906H113.07V106.708H119.888V99.8906Z" fill="#14455F"/>
</g>
</g>
<g id="Group_178">
<g id="Group_179">
<path id="Vector_90" d="M133.524 99.8906H126.707V106.708H133.524V99.8906Z" fill="#14455F"/>
</g>
</g>
<g id="Group_180">
<g id="Group_181">
<path id="Vector_91" d="M147.157 99.8906H140.339V106.708H147.157V99.8906Z" fill="#14455F"/>
</g>
</g>
<g id="Group_182">
<g id="Group_183">
<path id="Vector_92" d="M153.973 99.8906H147.155V106.708H153.973V99.8906Z" fill="#14455F"/>
</g>
</g>
<g id="Group_184">
<g id="Group_185">
<path id="Vector_93" d="M188.063 99.8906H181.246V106.708H188.063V99.8906Z" fill="#14455F"/>
</g>
</g>
<g id="Group_186">
<g id="Group_187">
<path id="Vector_94" d="M72.1655 106.719H65.348V113.536H72.1655V106.719Z" fill="#14455F"/>
</g>
</g>
<g id="Group_188">
<g id="Group_189">
<path id="Vector_95" d="M85.7989 106.719H78.9814V113.536H85.7989V106.719Z" fill="#14455F"/>
</g>
</g>
<g id="Group_190">
<g id="Group_191">
<path id="Vector_96" d="M113.072 106.719H106.254V113.536H113.072V106.719Z" fill="#14455F"/>
</g>
</g>
<g id="Group_192">
<g id="Group_193">
<path id="Vector_97" d="M126.705 106.719H119.887V113.536H126.705V106.719Z" fill="#14455F"/>
</g>
</g>
<g id="Group_194">
<g id="Group_195">
<path id="Vector_98" d="M133.524 106.719H126.707V113.536H133.524V106.719Z" fill="#14455F"/>
</g>
</g>
<g id="Group_196">
<g id="Group_197">
<path id="Vector_99" d="M147.157 106.719H140.339V113.536H147.157V106.719Z" fill="#14455F"/>
</g>
</g>
<g id="Group_198">
<g id="Group_199">
<path id="Vector_100" d="M153.973 106.719H147.155V113.536H153.973V106.719Z" fill="#14455F"/>
</g>
</g>
<g id="Group_200">
<g id="Group_201">
<path id="Vector_101" d="M181.244 106.719H174.427V113.536H181.244V106.719Z" fill="#14455F"/>
</g>
</g>
<g id="Group_202">
<g id="Group_203">
<path id="Vector_102" d="M188.062 106.719H181.244V113.536H188.062V106.719Z" fill="#14455F"/>
</g>
</g>
<g id="Group_204">
<g id="Group_205">
<path id="Vector_103" d="M24.4403 113.527H17.6228V120.344H24.4403V113.527Z" fill="#14455F"/>
</g>
</g>
<g id="Group_206">
<g id="Group_207">
<path id="Vector_104" d="M31.2614 113.527H24.4439V120.344H31.2614V113.527Z" fill="#14455F"/>
</g>
</g>
<g id="Group_208">
<g id="Group_209">
<path id="Vector_105" d="M38.0786 113.527H31.261V120.344H38.0786V113.527Z" fill="#14455F"/>
</g>
</g>
<g id="Group_210">
<g id="Group_211">
<path id="Vector_106" d="M51.713 113.527H44.8954V120.344H51.713V113.527Z" fill="#14455F"/>
</g>
</g>
<g id="Group_212">
<g id="Group_213">
<path id="Vector_107" d="M58.5292 113.527H51.7117V120.344H58.5292V113.527Z" fill="#14455F"/>
</g>
</g>
<g id="Group_214">
<g id="Group_215">
<path id="Vector_108" d="M65.3474 113.527H58.5298V120.344H65.3474V113.527Z" fill="#14455F"/>
</g>
</g>
<g id="Group_216">
<g id="Group_217">
<path id="Vector_109" d="M92.6181 113.527H85.8005V120.344H92.6181V113.527Z" fill="#14455F"/>
</g>
</g>
<g id="Group_218">
<g id="Group_219">
<path id="Vector_110" d="M99.4371 113.527H92.6196V120.344H99.4371V113.527Z" fill="#14455F"/>
</g>
</g>
<g id="Group_220">
<g id="Group_221">
<path id="Vector_111" d="M126.705 113.527H119.887V120.344H126.705V113.527Z" fill="#14455F"/>
</g>
</g>
<g id="Group_222">
<g id="Group_223">
<path id="Vector_112" d="M147.157 113.527H140.339V120.344H147.157V113.527Z" fill="#14455F"/>
</g>
</g>
<g id="Group_224">
<g id="Group_225">
<path id="Vector_113" d="M167.611 113.527H160.793V120.344H167.611V113.527Z" fill="#14455F"/>
</g>
</g>
<g id="Group_226">
<g id="Group_227">
<path id="Vector_114" d="M174.428 113.527H167.611V120.344H174.428V113.527Z" fill="#14455F"/>
</g>
</g>
<g id="Group_228">
<g id="Group_229">
<path id="Vector_115" d="M188.063 113.527H181.246V120.344H188.063V113.527Z" fill="#14455F"/>
</g>
</g>
<g id="Group_230">
<g id="Group_231">
<path id="Vector_116" d="M44.8958 120.346H38.0782V127.163H44.8958V120.346Z" fill="#14455F"/>
</g>
</g>
<g id="Group_232">
<g id="Group_233">
<path id="Vector_117" d="M58.533 120.346H51.7155V127.163H58.533V120.346Z" fill="#14455F"/>
</g>
</g>
<g id="Group_234">
<g id="Group_235">
<path id="Vector_118" d="M72.1655 120.346H65.348V127.163H72.1655V120.346Z" fill="#14455F"/>
</g>
</g>
<g id="Group_236">
<g id="Group_237">
<path id="Vector_119" d="M78.9846 120.346H72.1671V127.163H78.9846V120.346Z" fill="#14455F"/>
</g>
</g>
<g id="Group_238">
<g id="Group_239">
<path id="Vector_120" d="M85.7989 120.346H78.9814V127.163H85.7989V120.346Z" fill="#14455F"/>
</g>
</g>
<g id="Group_240">
<g id="Group_241">
<path id="Vector_121" d="M92.6181 120.346H85.8005V127.163H92.6181V120.346Z" fill="#14455F"/>
</g>
</g>
<g id="Group_242">
<g id="Group_243">
<path id="Vector_122" d="M113.07 120.346H106.252V127.163H113.07V120.346Z" fill="#14455F"/>
</g>
</g>
<g id="Group_244">
<g id="Group_245">
<path id="Vector_123" d="M133.524 120.346H126.707V127.163H133.524V120.346Z" fill="#14455F"/>
</g>
</g>
<g id="Group_246">
<g id="Group_247">
<path id="Vector_124" d="M153.973 120.346H147.155V127.163H153.973V120.346Z" fill="#14455F"/>
</g>
</g>
<g id="Group_248">
<g id="Group_249">
<path id="Vector_125" d="M160.795 120.346H153.977V127.163H160.795V120.346Z" fill="#14455F"/>
</g>
</g>
<g id="Group_250">
<g id="Group_251">
<path id="Vector_126" d="M167.611 120.346H160.793V127.163H167.611V120.346Z" fill="#14455F"/>
</g>
</g>
<g id="Group_252">
<g id="Group_253">
<path id="Vector_127" d="M24.4403 127.166H17.6228V133.983H24.4403V127.166Z" fill="#14455F"/>
</g>
</g>
<g id="Group_254">
<g id="Group_255">
<path id="Vector_128" d="M31.2614 127.166H24.4439V133.983H31.2614V127.166Z" fill="#14455F"/>
</g>
</g>
<g id="Group_256">
<g id="Group_257">
<path id="Vector_129" d="M38.0767 127.166H31.2592V133.983H38.0767V127.166Z" fill="#14455F"/>
</g>
</g>
<g id="Group_258">
<g id="Group_259">
<path id="Vector_130" d="M51.713 127.166H44.8954V133.983H51.713V127.166Z" fill="#14455F"/>
</g>
</g>
<g id="Group_260">
<g id="Group_261">
<path id="Vector_131" d="M58.533 127.166H51.7155V133.983H58.533V127.166Z" fill="#14455F"/>
</g>
</g>
<g id="Group_262">
<g id="Group_263">
<path id="Vector_132" d="M65.3444 127.166H58.5269V133.983H65.3444V127.166Z" fill="#14455F"/>
</g>
</g>
<g id="Group_264">
<g id="Group_265">
<path id="Vector_133" d="M78.9846 127.166H72.1671V133.983H78.9846V127.166Z" fill="#14455F"/>
</g>
</g>
<g id="Group_266">
<g id="Group_267">
<path id="Vector_134" d="M99.4313 127.166H92.6138V133.983H99.4313V127.166Z" fill="#14455F"/>
</g>
</g>
<g id="Group_268">
<g id="Group_269">
<path id="Vector_135" d="M106.254 127.166H99.4368V133.983H106.254V127.166Z" fill="#14455F"/>
</g>
</g>
<g id="Group_270">
<g id="Group_271">
<path id="Vector_136" d="M113.072 127.166H106.254V133.983H113.072V127.166Z" fill="#14455F"/>
</g>
</g>
<g id="Group_272">
<g id="Group_273">
<path id="Vector_137" d="M126.705 127.166H119.887V133.983H126.705V127.166Z" fill="#14455F"/>
</g>
</g>
<g id="Group_274">
<g id="Group_275">
<path id="Vector_138" d="M133.524 127.166H126.707V133.983H133.524V127.166Z" fill="#14455F"/>
</g>
</g>
<g id="Group_276">
<g id="Group_277">
<path id="Vector_139" d="M140.341 127.166H133.524V133.983H140.341V127.166Z" fill="#14455F"/>
</g>
</g>
<g id="Group_278">
<g id="Group_279">
<path id="Vector_140" d="M147.157 127.166H140.339V133.983H147.157V127.166Z" fill="#14455F"/>
</g>
</g>
<g id="Group_280">
<g id="Group_281">
<path id="Vector_141" d="M153.973 127.166H147.155V133.983H153.973V127.166Z" fill="#14455F"/>
</g>
</g>
<g id="Group_282">
<g id="Group_283">
<path id="Vector_142" d="M160.795 127.166H153.977V133.983H160.795V127.166Z" fill="#14455F"/>
</g>
</g>
<g id="Group_284">
<g id="Group_285">
<path id="Vector_143" d="M181.244 127.166H174.427V133.983H181.244V127.166Z" fill="#14455F"/>
</g>
</g>
<g id="Group_286">
<g id="Group_287">
<path id="Vector_144" d="M78.9846 133.979H72.1671V140.796H78.9846V133.979Z" fill="#14455F"/>
</g>
</g>
<g id="Group_288">
<g id="Group_289">
<path id="Vector_145" d="M106.254 133.979H99.4368V140.796H106.254V133.979Z" fill="#14455F"/>
</g>
</g>
<g id="Group_290">
<g id="Group_291">
<path id="Vector_146" d="M133.524 133.979H126.707V140.796H133.524V133.979Z" fill="#14455F"/>
</g>
</g>
<g id="Group_292">
<g id="Group_293">
<path id="Vector_147" d="M160.795 133.979H153.977V140.796H160.795V133.979Z" fill="#14455F"/>
</g>
</g>
<g id="Group_294">
<g id="Group_295">
<path id="Vector_148" d="M188.063 133.979H181.246V140.796H188.063V133.979Z" fill="#14455F"/>
</g>
</g>
<g id="Group_296">
<g id="Group_297">
<path id="Vector_149" d="M78.9846 140.805H72.1671V147.622H78.9846V140.805Z" fill="#14455F"/>
</g>
</g>
<g id="Group_298">
<g id="Group_299">
<path id="Vector_150" d="M85.7989 140.805H78.9814V147.622H85.7989V140.805Z" fill="#14455F"/>
</g>
</g>
<g id="Group_300">
<g id="Group_301">
<path id="Vector_151" d="M106.248 140.805H99.4301V147.622H106.248V140.805Z" fill="#14455F"/>
</g>
</g>
<g id="Group_302">
<g id="Group_303">
<path id="Vector_152" d="M113.07 140.805H106.252V147.622H113.07V140.805Z" fill="#14455F"/>
</g>
</g>
<g id="Group_304">
<g id="Group_305">
<path id="Vector_153" d="M119.888 140.805H113.07V147.622H119.888V140.805Z" fill="#14455F"/>
</g>
</g>
<g id="Group_306">
<g id="Group_307">
<path id="Vector_154" d="M133.523 140.805H126.706V147.622H133.523V140.805Z" fill="#14455F"/>
</g>
</g>
<g id="Group_308">
<g id="Group_309">
<path id="Vector_155" d="M147.157 140.805H140.339V147.622H147.157V140.805Z" fill="#14455F"/>
</g>
</g>
<g id="Group_310">
<g id="Group_311">
<path id="Vector_156" d="M160.795 140.805H153.977V147.622H160.795V140.805Z" fill="#14455F"/>
</g>
</g>
<g id="Group_312">
<g id="Group_313">
<path id="Vector_157" d="M188.063 140.805H181.245V147.622H188.063V140.805Z" fill="#14455F"/>
</g>
</g>
<g id="Group_314">
<g id="Group_315">
<path id="Vector_158" d="M99.4313 147.613H92.6138V154.43H99.4313V147.613Z" fill="#14455F"/>
</g>
</g>
<g id="Group_316">
<g id="Group_317">
<path id="Vector_159" d="M106.254 147.613H99.4368V154.43H106.254V147.613Z" fill="#14455F"/>
</g>
</g>
<g id="Group_318">
<g id="Group_319">
<path id="Vector_160" d="M119.888 147.613H113.07V154.43H119.888V147.613Z" fill="#14455F"/>
</g>
</g>
<g id="Group_320">
<g id="Group_321">
<path id="Vector_161" d="M126.705 147.613H119.887V154.43H126.705V147.613Z" fill="#14455F"/>
</g>
</g>
<g id="Group_322">
<g id="Group_323">
<path id="Vector_162" d="M133.524 147.613H126.707V154.43H133.524V147.613Z" fill="#14455F"/>
</g>
</g>
<g id="Group_324">
<g id="Group_325">
<path id="Vector_163" d="M160.795 147.613H153.977V154.43H160.795V147.613Z" fill="#14455F"/>
</g>
</g>
<g id="Group_326">
<g id="Group_327">
<path id="Vector_164" d="M85.7989 154.439H78.9814V161.257H85.7989V154.439Z" fill="#14455F"/>
</g>
</g>
<g id="Group_328">
<g id="Group_329">
<path id="Vector_165" d="M113.069 154.439H106.251V161.257H113.069V154.439Z" fill="#14455F"/>
</g>
</g>
<g id="Group_330">
<g id="Group_331">
<path id="Vector_166" d="M119.888 154.439H113.07V161.257H119.888V154.439Z" fill="#14455F"/>
</g>
</g>
<g id="Group_332">
<g id="Group_333">
<path id="Vector_167" d="M126.705 154.439H119.887V161.257H126.705V154.439Z" fill="#14455F"/>
</g>
</g>
<g id="Group_334">
<g id="Group_335">
<path id="Vector_168" d="M133.524 154.439H126.707V161.257H133.524V154.439Z" fill="#14455F"/>
</g>
</g>
<g id="Group_336">
<g id="Group_337">
<path id="Vector_169" d="M140.337 154.439H133.52V161.257H140.337V154.439Z" fill="#14455F"/>
</g>
</g>
<g id="Group_338">
<g id="Group_339">
<path id="Vector_170" d="M147.157 154.439H140.339V161.257H147.157V154.439Z" fill="#14455F"/>
</g>
</g>
<g id="Group_340">
<g id="Group_341">
<path id="Vector_171" d="M153.973 154.439H147.155V161.257H153.973V154.439Z" fill="#14455F"/>
</g>
</g>
<g id="Group_342">
<g id="Group_343">
<path id="Vector_172" d="M160.795 154.439H153.977V161.257H160.795V154.439Z" fill="#14455F"/>
</g>
</g>
<g id="Group_344">
<g id="Group_345">
<path id="Vector_173" d="M188.063 154.439H181.245V161.257H188.063V154.439Z" fill="#14455F"/>
</g>
</g>
<g id="Group_346">
<g id="Group_347">
<path id="Vector_174" d="M113.072 161.252H106.254V168.069H113.072V161.252Z" fill="#14455F"/>
</g>
</g>
<g id="Group_348">
<g id="Group_349">
<path id="Vector_175" d="M119.888 161.252H113.07V168.069H119.888V161.252Z" fill="#14455F"/>
</g>
</g>
<g id="Group_350">
<g id="Group_351">
<path id="Vector_176" d="M133.524 161.252H126.707V168.069H133.524V161.252Z" fill="#14455F"/>
</g>
</g>
<g id="Group_352">
<g id="Group_353">
<path id="Vector_177" d="M140.337 161.252H133.52V168.069H140.337V161.252Z" fill="#14455F"/>
</g>
</g>
<g id="Group_354">
<g id="Group_355">
<path id="Vector_178" d="M160.795 161.252H153.977V168.069H160.795V161.252Z" fill="#14455F"/>
</g>
</g>
<g id="Group_356">
<g id="Group_357">
<path id="Vector_179" d="M174.43 161.252H167.613V168.069H174.43V161.252Z" fill="#14455F"/>
</g>
</g>
<g id="Group_358">
<g id="Group_359">
<path id="Vector_180" d="M181.244 161.252H174.427V168.069H181.244V161.252Z" fill="#14455F"/>
</g>
</g>
<g id="Group_360">
<g id="Group_361">
<path id="Vector_181" d="M78.9846 168.076H72.1671V174.893H78.9846V168.076Z" fill="#14455F"/>
</g>
</g>
<g id="Group_362">
<g id="Group_363">
<path id="Vector_182" d="M85.7989 168.076H78.9814V174.893H85.7989V168.076Z" fill="#14455F"/>
</g>
</g>
<g id="Group_364">
<g id="Group_365">
<path id="Vector_183" d="M99.4313 168.076H92.6138V174.893H99.4313V168.076Z" fill="#14455F"/>
</g>
</g>
<g id="Group_366">
<g id="Group_367">
<path id="Vector_184" d="M126.705 168.076H119.887V174.893H126.705V168.076Z" fill="#14455F"/>
</g>
</g>
<g id="Group_368">
<g id="Group_369">
<path id="Vector_185" d="M133.524 168.076H126.707V174.893H133.524V168.076Z" fill="#14455F"/>
</g>
</g>
<g id="Group_370">
<g id="Group_371">
<path id="Vector_186" d="M140.341 168.076H133.524V174.893H140.341V168.076Z" fill="#14455F"/>
</g>
</g>
<g id="Group_372">
<g id="Group_373">
<path id="Vector_187" d="M153.973 168.076H147.155V174.893H153.973V168.076Z" fill="#14455F"/>
</g>
</g>
<g id="Group_374">
<g id="Group_375">
<path id="Vector_188" d="M160.795 168.076H153.977V174.893H160.795V168.076Z" fill="#14455F"/>
</g>
</g>
<g id="Group_376">
<g id="Group_377">
<path id="Vector_189" d="M167.611 168.076H160.793V174.893H167.611V168.076Z" fill="#14455F"/>
</g>
</g>
<g id="Group_378">
<g id="Group_379">
<path id="Vector_190" d="M181.244 168.076H174.427V174.893H181.244V168.076Z" fill="#14455F"/>
</g>
</g>
<g id="Group_380">
<g id="Group_381">
<path id="Vector_191" d="M188.063 168.076H181.246V174.893H188.063V168.076Z" fill="#14455F"/>
</g>
</g>
<g id="Group_382">
<g id="Group_383">
<path id="Vector_192" d="M85.8001 174.891H78.9826V181.708H85.8001V174.891Z" fill="#14455F"/>
</g>
</g>
<g id="Group_384">
<g id="Group_385">
<path id="Vector_193" d="M92.6181 174.891H85.8005V181.708H92.6181V174.891Z" fill="#14455F"/>
</g>
</g>
<g id="Group_386">
<g id="Group_387">
<path id="Vector_194" d="M113.07 174.891H106.252V181.708H113.07V174.891Z" fill="#14455F"/>
</g>
</g>
<g id="Group_388">
<g id="Group_389">
<path id="Vector_195" d="M133.524 174.891H126.707V181.708H133.524V174.891Z" fill="#14455F"/>
</g>
</g>
<g id="Group_390">
<g id="Group_391">
<path id="Vector_196" d="M140.342 174.891H133.525V181.708H140.342V174.891Z" fill="#14455F"/>
</g>
</g>
<g id="Group_392">
<g id="Group_393">
<path id="Vector_197" d="M153.973 174.891H147.155V181.708H153.973V174.891Z" fill="#14455F"/>
</g>
</g>
<g id="Group_394">
<g id="Group_395">
<path id="Vector_198" d="M160.792 174.891H153.974V181.708H160.792V174.891Z" fill="#14455F"/>
</g>
</g>
<g id="Group_396">
<g id="Group_397">
<path id="Vector_199" d="M78.9846 181.695H72.1671V188.512H78.9846V181.695Z" fill="#14455F"/>
</g>
</g>
<g id="Group_398">
<g id="Group_399">
<path id="Vector_200" d="M85.7989 181.695H78.9814V188.512H85.7989V181.695Z" fill="#14455F"/>
</g>
</g>
<g id="Group_400">
<g id="Group_401">
<path id="Vector_201" d="M92.6181 181.695H85.8005V188.512H92.6181V181.695Z" fill="#14455F"/>
</g>
</g>
<g id="Group_402">
<g id="Group_403">
<path id="Vector_202" d="M99.4371 181.695H92.6196V188.512H99.4371V181.695Z" fill="#14455F"/>
</g>
</g>
<g id="Group_404">
<g id="Group_405">
<path id="Vector_203" d="M106.251 181.695H99.434V188.512H106.251V181.695Z" fill="#14455F"/>
</g>
</g>
<g id="Group_406">
<g id="Group_407">
<path id="Vector_204" d="M113.072 181.703H106.254V188.52H113.072V181.703Z" fill="#14455F"/>
</g>
</g>
<g id="Group_408">
<g id="Group_409">
<path id="Vector_205" d="M133.524 181.695H126.707V188.512H133.524V181.695Z" fill="#14455F"/>
</g>
</g>
<g id="Group_410">
<g id="Group_411">
<path id="Vector_206" d="M147.157 181.695H140.339V188.512H147.157V181.695Z" fill="#14455F"/>
</g>
</g>
<g id="Group_412">
<g id="Group_413">
<path id="Vector_207" d="M167.611 181.695H160.793V188.512H167.611V181.695Z" fill="#14455F"/>
</g>
</g>
<g id="Group_414">
<g id="Group_415">
<path id="Vector_208" d="M188.063 181.695H181.246V188.512H188.063V181.695Z" fill="#14455F"/>
</g>
</g>
<g id="Group_416">
<g id="Group_417">
<g id="Group_418">
<rect id="Rectangle 1123" x="20.06" y="20.5293" width="40.4382" height="40.4356" rx="8.8" stroke="#14455F" stroke-width="8"/>
</g>
</g>
</g>
<g id="Group_419">
<rect id="Rectangle 1123_2" x="143.501" y="20.5293" width="40.439" height="40.4356" rx="8.8" stroke="#14455F" stroke-width="8"/>
</g>
<g id="Group_420">
<g id="Group_421">
<g id="Group_422">
<rect id="Rectangle 1123_3" x="21.6227" y="143.967" width="40.4382" height="40.4356" rx="8.8" stroke="#14455F" stroke-width="8"/>
</g>
</g>
</g>
<g id="Group_423">
<g id="Group_424">
<path id="Vector_209" d="M40.1491 50.6403C45.6861 50.6403 50.1748 46.1518 50.1748 40.6151C50.1748 35.0783 45.6861 30.5899 40.1491 30.5899C34.612 30.5899 30.1233 35.0783 30.1233 40.6151C30.1233 46.1518 34.612 50.6403 40.1491 50.6403Z" fill="#14455F"/>
</g>
</g>
<g id="Group_425">
<g id="Group_426">
<path id="Vector_210" d="M163.588 50.6403C169.125 50.6403 173.614 46.1518 173.614 40.6151C173.614 35.0783 169.125 30.5899 163.588 30.5899C158.051 30.5899 153.562 35.0783 153.562 40.6151C153.562 46.1518 158.051 50.6403 163.588 50.6403Z" fill="#14455F"/>
</g>
</g>
<g id="Group_427">
<g id="Group_428">
<path id="Vector_211" d="M41.2868 174.49C46.8239 174.49 51.3126 170.001 51.3126 164.465C51.3126 158.928 46.8239 154.439 41.2868 154.439C35.7497 154.439 31.261 158.928 31.261 164.465C31.261 170.001 35.7497 174.49 41.2868 174.49Z" fill="#14455F"/>
</g>
</g>
</g>
</g>
</g>
<path id="Rectangle 1119" d="M170.695 2.00001H194.532C198.656 2.00001 202 5.34375 202 9.46846V33.3032" stroke="#707070" stroke-width="3" stroke-linecap="round"/>
<path id="Rectangle 1121" d="M170.695 202H194.532C198.656 202 202 198.656 202 194.532V170.697" stroke="#707070" stroke-width="3" stroke-linecap="round"/>
<path id="Rectangle 1120" d="M31.5658 2.00001H9.4685C5.34379 2.00001 2.00004 5.34375 2.00004 9.46846V33.3032" stroke="#707070" stroke-width="3" stroke-linecap="round"/>
<path id="Rectangle 1122" d="M31.5658 202H9.4685C5.34379 202 2.00004 198.656 2.00004 194.532V170.697" stroke="#707070" stroke-width="3" stroke-linecap="round"/>
</g>
</g>
</g>
<g id="Group 1000003978">
<rect id="Rectangle 1182" x="81.9999" y="82" width="39.6311" height="39.6277" rx="12.4166" fill="white"/>
<g id="Group_429">
<path id="Vector_212" d="M112.348 94.6507H90.0984C90.0067 94.6507 89.9361 94.5801 89.9361 94.4884V94.1709C89.9361 89.641 93.6126 85.9648 98.1429 85.9648H104.317C108.848 85.9648 112.524 89.641 112.524 94.1709V94.4884C112.51 94.5801 112.439 94.6507 112.348 94.6507Z" fill="#0C87C9"/>
<path id="Vector_213" d="M103.823 108.98H89.9285C89.9285 113.779 93.8166 117.666 98.6151 117.666H112.509C112.509 112.868 108.621 108.98 103.823 108.98Z" fill="#37C8FC"/>
<path id="Vector_214" d="M99.9135 108.99H89.9285V94.1371C89.9285 89.6354 93.5838 85.9805 98.0858 85.9805H99.9135V108.99Z" fill="#0C87C9"/>
</g>
</g>
</g>
</svg>
